<mxfile host="app.diagrams.net" modified="2024-02-19T09:44:50.853Z" agent="Mozilla/5.0 (Windows NT 10.0; Win64; x64) AppleWebKit/537.36 (KHTML, like Gecko) Chrome/120.0.0.0 Safari/537.36 Edg/120.0.0.0" etag="6TrlPQYMGg9xFQe6ZePw" version="23.1.5" type="device">
  <diagram name="第 1 页" id="GLvaTL72E6M60QtFoY6b">
    <mxGraphModel dx="956" dy="547" grid="0" gridSize="10" guides="1" tooltips="1" connect="1" arrows="1" fold="1" page="1" pageScale="1" pageWidth="827" pageHeight="1169" math="0" shadow="0">
      <root>
        <mxCell id="0" />
        <mxCell id="1" parent="0" />
        <mxCell id="_2QhtRLrIFT9V1y-oJOr-41" value="VM pool&lt;br&gt;&lt;br&gt;&lt;div&gt;&lt;br&gt;&lt;/div&gt;&lt;div&gt;&lt;br&gt;&lt;/div&gt;" style="rounded=0;whiteSpace=wrap;html=1;fillColor=#dae8fc;strokeColor=#6c8ebf;dashed=1;dashPattern=12 12;strokeWidth=2;" parent="1" vertex="1">
          <mxGeometry x="212" y="256" width="423" height="61" as="geometry" />
        </mxCell>
        <mxCell id="_2QhtRLrIFT9V1y-oJOr-13" value="" style="rounded=0;whiteSpace=wrap;html=1;fillColor=#FFFAED;strokeColor=#d6b656;dashed=1;dashPattern=8 8;" parent="1" vertex="1">
          <mxGeometry x="144" y="358" width="540" height="64" as="geometry" />
        </mxCell>
        <mxCell id="_2QhtRLrIFT9V1y-oJOr-7" value="&lt;br&gt;&lt;br&gt;&lt;br&gt;VMM" style="rounded=0;whiteSpace=wrap;html=1;fillColor=#f5f5f5;strokeColor=#666666;strokeWidth=2;fontColor=#333333;dashed=1;" parent="1" vertex="1">
          <mxGeometry x="144" y="461" width="540" height="69" as="geometry" />
        </mxCell>
        <mxCell id="PPzPVcoJissM2M4kxO6C-3" style="edgeStyle=orthogonalEdgeStyle;rounded=0;orthogonalLoop=1;jettySize=auto;html=1;exitX=0.5;exitY=0;exitDx=0;exitDy=0;entryX=0.5;entryY=1;entryDx=0;entryDy=0;" edge="1" parent="1" source="_2QhtRLrIFT9V1y-oJOr-1" target="_2QhtRLrIFT9V1y-oJOr-8">
          <mxGeometry relative="1" as="geometry" />
        </mxCell>
        <mxCell id="PPzPVcoJissM2M4kxO6C-4" style="rounded=0;orthogonalLoop=1;jettySize=auto;html=1;exitX=0.5;exitY=0;exitDx=0;exitDy=0;entryX=0.5;entryY=1;entryDx=0;entryDy=0;" edge="1" parent="1" source="_2QhtRLrIFT9V1y-oJOr-1" target="_2QhtRLrIFT9V1y-oJOr-9">
          <mxGeometry relative="1" as="geometry" />
        </mxCell>
        <mxCell id="PPzPVcoJissM2M4kxO6C-5" style="rounded=0;orthogonalLoop=1;jettySize=auto;html=1;exitX=0.5;exitY=0;exitDx=0;exitDy=0;entryX=0.5;entryY=1;entryDx=0;entryDy=0;" edge="1" parent="1" source="_2QhtRLrIFT9V1y-oJOr-1" target="_2QhtRLrIFT9V1y-oJOr-10">
          <mxGeometry relative="1" as="geometry" />
        </mxCell>
        <mxCell id="PPzPVcoJissM2M4kxO6C-6" style="rounded=0;orthogonalLoop=1;jettySize=auto;html=1;exitX=0.5;exitY=0;exitDx=0;exitDy=0;entryX=0.5;entryY=1;entryDx=0;entryDy=0;" edge="1" parent="1" source="_2QhtRLrIFT9V1y-oJOr-1" target="_2QhtRLrIFT9V1y-oJOr-11">
          <mxGeometry relative="1" as="geometry" />
        </mxCell>
        <mxCell id="_2QhtRLrIFT9V1y-oJOr-1" value="CPU 1" style="rounded=1;whiteSpace=wrap;html=1;" parent="1" vertex="1">
          <mxGeometry x="164" y="471" width="80" height="34" as="geometry" />
        </mxCell>
        <mxCell id="PPzPVcoJissM2M4kxO6C-7" style="rounded=0;orthogonalLoop=1;jettySize=auto;html=1;exitX=0.5;exitY=0;exitDx=0;exitDy=0;entryX=0.5;entryY=1;entryDx=0;entryDy=0;" edge="1" parent="1" source="_2QhtRLrIFT9V1y-oJOr-2" target="_2QhtRLrIFT9V1y-oJOr-8">
          <mxGeometry relative="1" as="geometry" />
        </mxCell>
        <mxCell id="PPzPVcoJissM2M4kxO6C-8" style="rounded=0;orthogonalLoop=1;jettySize=auto;html=1;exitX=0.5;exitY=0;exitDx=0;exitDy=0;entryX=0.5;entryY=1;entryDx=0;entryDy=0;" edge="1" parent="1" source="_2QhtRLrIFT9V1y-oJOr-2" target="_2QhtRLrIFT9V1y-oJOr-9">
          <mxGeometry relative="1" as="geometry" />
        </mxCell>
        <mxCell id="PPzPVcoJissM2M4kxO6C-9" style="rounded=0;orthogonalLoop=1;jettySize=auto;html=1;exitX=0.5;exitY=0;exitDx=0;exitDy=0;entryX=0.5;entryY=1;entryDx=0;entryDy=0;" edge="1" parent="1" source="_2QhtRLrIFT9V1y-oJOr-2" target="_2QhtRLrIFT9V1y-oJOr-10">
          <mxGeometry relative="1" as="geometry" />
        </mxCell>
        <mxCell id="PPzPVcoJissM2M4kxO6C-10" style="rounded=0;orthogonalLoop=1;jettySize=auto;html=1;exitX=0.5;exitY=0;exitDx=0;exitDy=0;entryX=0.5;entryY=1;entryDx=0;entryDy=0;" edge="1" parent="1" source="_2QhtRLrIFT9V1y-oJOr-2" target="_2QhtRLrIFT9V1y-oJOr-11">
          <mxGeometry relative="1" as="geometry" />
        </mxCell>
        <mxCell id="_2QhtRLrIFT9V1y-oJOr-2" value="CPU 2" style="rounded=1;whiteSpace=wrap;html=1;" parent="1" vertex="1">
          <mxGeometry x="274" y="471" width="80" height="34" as="geometry" />
        </mxCell>
        <mxCell id="PPzPVcoJissM2M4kxO6C-11" style="rounded=0;orthogonalLoop=1;jettySize=auto;html=1;exitX=0.5;exitY=0;exitDx=0;exitDy=0;entryX=0.5;entryY=1;entryDx=0;entryDy=0;" edge="1" parent="1" source="_2QhtRLrIFT9V1y-oJOr-3" target="_2QhtRLrIFT9V1y-oJOr-8">
          <mxGeometry relative="1" as="geometry" />
        </mxCell>
        <mxCell id="PPzPVcoJissM2M4kxO6C-12" style="rounded=0;orthogonalLoop=1;jettySize=auto;html=1;exitX=0.5;exitY=0;exitDx=0;exitDy=0;entryX=0.5;entryY=1;entryDx=0;entryDy=0;" edge="1" parent="1" source="_2QhtRLrIFT9V1y-oJOr-3" target="_2QhtRLrIFT9V1y-oJOr-9">
          <mxGeometry relative="1" as="geometry" />
        </mxCell>
        <mxCell id="PPzPVcoJissM2M4kxO6C-13" style="rounded=0;orthogonalLoop=1;jettySize=auto;html=1;exitX=0.5;exitY=0;exitDx=0;exitDy=0;entryX=0.5;entryY=1;entryDx=0;entryDy=0;" edge="1" parent="1" source="_2QhtRLrIFT9V1y-oJOr-3" target="_2QhtRLrIFT9V1y-oJOr-10">
          <mxGeometry relative="1" as="geometry" />
        </mxCell>
        <mxCell id="PPzPVcoJissM2M4kxO6C-14" style="rounded=0;orthogonalLoop=1;jettySize=auto;html=1;exitX=0.5;exitY=0;exitDx=0;exitDy=0;entryX=0.5;entryY=1;entryDx=0;entryDy=0;" edge="1" parent="1" source="_2QhtRLrIFT9V1y-oJOr-3" target="_2QhtRLrIFT9V1y-oJOr-11">
          <mxGeometry relative="1" as="geometry" />
        </mxCell>
        <mxCell id="_2QhtRLrIFT9V1y-oJOr-3" value="CPU 3" style="rounded=1;whiteSpace=wrap;html=1;" parent="1" vertex="1">
          <mxGeometry x="384" y="471" width="80" height="34" as="geometry" />
        </mxCell>
        <mxCell id="PPzPVcoJissM2M4kxO6C-15" style="rounded=0;orthogonalLoop=1;jettySize=auto;html=1;exitX=0.5;exitY=0;exitDx=0;exitDy=0;entryX=0.5;entryY=1;entryDx=0;entryDy=0;" edge="1" parent="1" source="_2QhtRLrIFT9V1y-oJOr-4" target="_2QhtRLrIFT9V1y-oJOr-8">
          <mxGeometry relative="1" as="geometry" />
        </mxCell>
        <mxCell id="PPzPVcoJissM2M4kxO6C-16" style="rounded=0;orthogonalLoop=1;jettySize=auto;html=1;exitX=0.5;exitY=0;exitDx=0;exitDy=0;entryX=0.5;entryY=1;entryDx=0;entryDy=0;" edge="1" parent="1" source="_2QhtRLrIFT9V1y-oJOr-4" target="_2QhtRLrIFT9V1y-oJOr-9">
          <mxGeometry relative="1" as="geometry" />
        </mxCell>
        <mxCell id="PPzPVcoJissM2M4kxO6C-17" style="rounded=0;orthogonalLoop=1;jettySize=auto;html=1;exitX=0.5;exitY=0;exitDx=0;exitDy=0;entryX=0.5;entryY=1;entryDx=0;entryDy=0;" edge="1" parent="1" source="_2QhtRLrIFT9V1y-oJOr-4" target="_2QhtRLrIFT9V1y-oJOr-10">
          <mxGeometry relative="1" as="geometry" />
        </mxCell>
        <mxCell id="PPzPVcoJissM2M4kxO6C-18" style="rounded=0;orthogonalLoop=1;jettySize=auto;html=1;exitX=0.5;exitY=0;exitDx=0;exitDy=0;" edge="1" parent="1" source="_2QhtRLrIFT9V1y-oJOr-4" target="_2QhtRLrIFT9V1y-oJOr-11">
          <mxGeometry relative="1" as="geometry" />
        </mxCell>
        <mxCell id="_2QhtRLrIFT9V1y-oJOr-4" value="CPU n" style="rounded=1;whiteSpace=wrap;html=1;" parent="1" vertex="1">
          <mxGeometry x="584" y="471" width="80" height="34" as="geometry" />
        </mxCell>
        <mxCell id="_2QhtRLrIFT9V1y-oJOr-5" value="" style="endArrow=none;dashed=1;html=1;dashPattern=1 3;strokeWidth=6;rounded=0;" parent="1" edge="1">
          <mxGeometry width="50" height="50" relative="1" as="geometry">
            <mxPoint x="484" y="491" as="sourcePoint" />
            <mxPoint x="564" y="491" as="targetPoint" />
          </mxGeometry>
        </mxCell>
        <mxCell id="_2QhtRLrIFT9V1y-oJOr-8" value="vCPU 1" style="rounded=1;whiteSpace=wrap;html=1;" parent="1" vertex="1">
          <mxGeometry x="164" y="370" width="80" height="40" as="geometry" />
        </mxCell>
        <mxCell id="_2QhtRLrIFT9V1y-oJOr-9" value="vCPU 2" style="rounded=1;whiteSpace=wrap;html=1;" parent="1" vertex="1">
          <mxGeometry x="274" y="370" width="80" height="40" as="geometry" />
        </mxCell>
        <mxCell id="_2QhtRLrIFT9V1y-oJOr-10" value="vCPU 3" style="rounded=1;whiteSpace=wrap;html=1;" parent="1" vertex="1">
          <mxGeometry x="384" y="370" width="80" height="40" as="geometry" />
        </mxCell>
        <mxCell id="_2QhtRLrIFT9V1y-oJOr-11" value="vCPU m" style="rounded=1;whiteSpace=wrap;html=1;" parent="1" vertex="1">
          <mxGeometry x="584" y="370" width="80" height="40" as="geometry" />
        </mxCell>
        <mxCell id="_2QhtRLrIFT9V1y-oJOr-14" value="" style="endArrow=none;dashed=1;html=1;dashPattern=1 3;strokeWidth=6;rounded=0;" parent="1" edge="1">
          <mxGeometry width="50" height="50" relative="1" as="geometry">
            <mxPoint x="484" y="389.58000000000004" as="sourcePoint" />
            <mxPoint x="564" y="389.58000000000004" as="targetPoint" />
          </mxGeometry>
        </mxCell>
        <mxCell id="_2QhtRLrIFT9V1y-oJOr-19" value="VM 1" style="rounded=1;whiteSpace=wrap;html=1;" parent="1" vertex="1">
          <mxGeometry x="229.5" y="281" width="56" height="25" as="geometry" />
        </mxCell>
        <mxCell id="_2QhtRLrIFT9V1y-oJOr-20" value="VM 2" style="rounded=1;whiteSpace=wrap;html=1;" parent="1" vertex="1">
          <mxGeometry x="393" y="281" width="56" height="25" as="geometry" />
        </mxCell>
        <mxCell id="_2QhtRLrIFT9V1y-oJOr-22" value="VM x" style="rounded=1;whiteSpace=wrap;html=1;" parent="1" vertex="1">
          <mxGeometry x="569.25" y="281" width="56" height="25" as="geometry" />
        </mxCell>
        <mxCell id="_2QhtRLrIFT9V1y-oJOr-23" value="" style="endArrow=none;dashed=1;html=1;dashPattern=1 3;strokeWidth=6;rounded=0;" parent="1" edge="1">
          <mxGeometry width="50" height="50" relative="1" as="geometry">
            <mxPoint x="464" y="293.1600000000001" as="sourcePoint" />
            <mxPoint x="544" y="293.1600000000001" as="targetPoint" />
          </mxGeometry>
        </mxCell>
        <mxCell id="PPzPVcoJissM2M4kxO6C-22" style="edgeStyle=orthogonalEdgeStyle;rounded=0;orthogonalLoop=1;jettySize=auto;html=1;exitX=0.5;exitY=0;exitDx=0;exitDy=0;entryX=0.5;entryY=1;entryDx=0;entryDy=0;" edge="1" parent="1" source="PPzPVcoJissM2M4kxO6C-19" target="_2QhtRLrIFT9V1y-oJOr-19">
          <mxGeometry relative="1" as="geometry" />
        </mxCell>
        <mxCell id="PPzPVcoJissM2M4kxO6C-19" value="vProcessor 1&lt;br&gt;&lt;br&gt;&lt;br&gt;&lt;div&gt;&lt;br&gt;&lt;/div&gt;&lt;div&gt;&lt;br&gt;&lt;/div&gt;" style="rounded=1;whiteSpace=wrap;html=1;fillColor=none;dashed=1;" vertex="1" parent="1">
          <mxGeometry x="155" y="336" width="207" height="80" as="geometry" />
        </mxCell>
        <mxCell id="PPzPVcoJissM2M4kxO6C-23" style="edgeStyle=orthogonalEdgeStyle;rounded=0;orthogonalLoop=1;jettySize=auto;html=1;exitX=0.5;exitY=0;exitDx=0;exitDy=0;entryX=0.5;entryY=1;entryDx=0;entryDy=0;" edge="1" parent="1" source="PPzPVcoJissM2M4kxO6C-20" target="_2QhtRLrIFT9V1y-oJOr-20">
          <mxGeometry relative="1" as="geometry" />
        </mxCell>
        <mxCell id="PPzPVcoJissM2M4kxO6C-20" value="vProcessor 2&lt;br&gt;&lt;br&gt;&lt;br&gt;&lt;div&gt;&lt;br&gt;&lt;/div&gt;&lt;div&gt;&lt;br&gt;&lt;/div&gt;" style="rounded=1;whiteSpace=wrap;html=1;fillColor=none;dashed=1;" vertex="1" parent="1">
          <mxGeometry x="377" y="336" width="93" height="80" as="geometry" />
        </mxCell>
        <mxCell id="PPzPVcoJissM2M4kxO6C-24" style="edgeStyle=orthogonalEdgeStyle;rounded=0;orthogonalLoop=1;jettySize=auto;html=1;exitX=0.5;exitY=0;exitDx=0;exitDy=0;entryX=0.5;entryY=1;entryDx=0;entryDy=0;" edge="1" parent="1" source="PPzPVcoJissM2M4kxO6C-21" target="_2QhtRLrIFT9V1y-oJOr-22">
          <mxGeometry relative="1" as="geometry" />
        </mxCell>
        <mxCell id="PPzPVcoJissM2M4kxO6C-21" value="vProcessor x&lt;br&gt;&lt;br&gt;&lt;br&gt;&lt;div&gt;&lt;br&gt;&lt;/div&gt;&lt;div&gt;&lt;br&gt;&lt;/div&gt;" style="rounded=1;whiteSpace=wrap;html=1;fillColor=none;dashed=1;" vertex="1" parent="1">
          <mxGeometry x="524" y="336" width="146.5" height="80" as="geometry" />
        </mxCell>
      </root>
    </mxGraphModel>
  </diagram>
</mxfile>
